<svg xmlns="http://www.w3.org/2000/svg" version="1.1" xmlns:xlink="http://www.w3.org/1999/xlink" xmlns:svgjs="http://svgjs.dev/svgjs" width="1500" height="1500" viewBox="0 0 1500 1500"><rect width="1500" height="1500" fill="#ffffff"></rect><g transform="matrix(0.6666666666666666,0,0,0.6666666666666666,249.39393939393932,586.9578691138945)"><svg viewBox="0 0 396 129" data-background-color="#ffffff" preserveAspectRatio="xMidYMid meet" height="488" width="1500" xmlns="http://www.w3.org/2000/svg" xmlns:xlink="http://www.w3.org/1999/xlink"><g id="tight-bounds" transform="matrix(1,0,0,1,0.24000000000003752,0.14887771815867268)"><svg viewBox="0 0 395.5199999999999 128.70209699246112" height="128.70209699246112" width="395.5199999999999"><g><svg viewBox="0 0 633.8320264464069 206.24876351292895" height="128.70209699246112" width="395.5199999999999"><g transform="matrix(1,0,0,1,238.3120264464069,69.16999531578651)"><svg viewBox="0 0 395.52000000000004 67.90877288135592" height="67.90877288135592" width="395.52000000000004"><g id="textblocktransform"><svg viewBox="0 0 395.52000000000004 67.90877288135592" height="67.90877288135592" width="395.52000000000004" id="textblock"><g><svg viewBox="0 0 395.52000000000004 67.90877288135592" height="67.90877288135592" width="395.52000000000004"><g transform="matrix(1,0,0,1,0,0)"><svg width="395.52000000000004" viewBox="0.95 -37.5 294.96000000000004 50.65" height="67.90877288135592" data-palette-color="#000000"><path d="M10.35-35L10.35 0 8.45 0 8.45-32.2 0.95-28.8 0.95-30.65 10.35-35ZM31.8-22L31.8-25 33.65-25 33.65 0.85Q33.65 4.3 32.8 6.88 31.95 9.45 30.65 10.7L30.65 10.7Q28.1 13.15 25.6 13.15L25.6 13.15Q22.25 13.15 19.3 10.35L19.3 10.35 19.3 7.95Q22.45 11.3 25.55 11.3 28.65 11.3 30.22 8.33 31.8 5.35 31.8 0.8L31.8 0.8 31.8 0Q22.85-0.35 19.3-3.9L19.3-3.9Q16.2-7.1 16.2-13.25L16.2-13.25Q16.2-20.8 20.6-24L20.6-24Q22.7-25.55 24.75-25.55L24.75-25.55Q28.5-25.55 31.8-22L31.8-22ZM25.05-23.7Q22.1-23.7 20.07-20.55 18.05-17.4 18.05-13.68 18.05-9.95 19.1-7.65 20.15-5.35 22.1-4.1L22.1-4.1Q25.7-1.85 31.8-1.85L31.8-1.85 31.8-19.5Q30.1-21.45 28.52-22.58 26.95-23.7 25.05-23.7L25.05-23.7ZM68.19 0L66.34 0 66.39-13.2Q66.39-17.4 64.37-20.55 62.34-23.7 59.39-23.7L59.39-23.7Q57.49-23.7 55.92-22.58 54.34-21.45 52.64-19.5L52.64-19.5 52.64 0 50.79 0 50.79-37.5 52.64-37.5 52.64-22Q55.94-25.55 59.69-25.55L59.69-25.55Q61.74-25.55 63.84-24L63.84-24Q68.24-20.8 68.24-13.25L68.24-13.25 68.19 0ZM91.89-13.45L91.89-13.45Q91.89-10.05 91.24-7.48 90.59-4.9 89.62-3.5 88.64-2.1 87.29-1.25L87.29-1.25Q83.89 0.95 79.84-0.35L79.84-0.35Q78.44-0.8 76.89-1.98 75.34-3.15 74.39-5.7 73.44-8.25 73.44-11.95L73.44-11.95Q73.44-17.95 75.84-21.73 78.24-25.5 82.77-25.5 87.29-25.5 89.57-21.95 91.84-18.4 91.89-13.45ZM82.09-1.75L82.09-1.75 82.69-1.7 83.24-1.75Q90.04-2.4 90.04-13.2L90.04-13.2Q90.04-17.65 88.24-20.65 86.44-23.65 82.49-23.65L82.49-23.65Q79.94-23.65 78.24-21.9L78.24-21.9Q75.29-18.8 75.29-12.25L75.29-12.25 75.29-11.85Q75.29-7.7 76.99-4.88 78.69-2.05 82.09-1.75ZM114.64 0L112.79 0 112.84-13.2Q112.84-17.4 110.81-20.53 108.79-23.65 105.76-23.65 102.74-23.65 99.09-19.5L99.09-19.5 99.09 0 97.24 0 97.24-25 99.09-25 99.09-22Q102.34-25.5 106.14-25.5L106.14-25.5Q108.69-25.5 111.44-23.1L111.44-23.1Q112.84-21.8 113.76-19.25 114.69-16.7 114.69-13.25L114.69-13.25 114.64 0ZM135.49-22L135.49-37.5 137.34-37.5 137.34 0.05Q134.34 0.05 132.09-0.2 129.84-0.45 127.41-1.28 124.99-2.1 123.44-3.5 121.89-4.9 120.89-7.38 119.89-9.85 119.89-12.95 119.89-16.05 120.51-18.28 121.14-20.5 122.11-21.83 123.09-23.15 124.29-24L124.29-24Q126.39-25.55 128.44-25.55L128.44-25.55Q132.19-25.55 135.49-22L135.49-22ZM128.74-23.7Q125.79-23.7 123.76-20.55 121.74-17.4 121.74-13.68 121.74-9.95 122.79-7.65 123.84-5.35 125.79-4.1L125.79-4.1Q129.39-1.85 135.49-1.85L135.49-1.85 135.49-19.5Q133.78-21.45 132.21-22.58 130.64-23.7 128.74-23.7L128.74-23.7ZM158.28-22L158.28-25 160.13-25 160.13 0.05Q157.13 0.05 154.88-0.2 152.63-0.45 150.21-1.28 147.78-2.1 146.23-3.5 144.68-4.9 143.68-7.38 142.68-9.85 142.68-12.95 142.68-16.05 143.31-18.28 143.93-20.5 144.91-21.83 145.88-23.15 147.08-24L147.08-24Q149.18-25.55 151.23-25.55L151.23-25.55Q154.98-25.55 158.28-22L158.28-22ZM144.53-13.2L144.53-13.2Q144.53-6.65 148.58-4.1L148.58-4.1Q152.18-1.85 158.28-1.85L158.28-1.85 158.28-19.5Q156.58-21.45 155.01-22.58 153.43-23.7 151.53-23.7L151.53-23.7Q148.38-23.7 146.46-20.93 144.53-18.15 144.53-13.2ZM179.13-25L179.13 0 177.28 0 177.28-25 179.13-25ZM177.38-28.95L177.38-33.25 179.23-33.25 179.23-28.95 177.38-28.95ZM203.53 0L201.68 0 201.73-13.2Q201.73-17.4 199.7-20.53 197.68-23.65 194.65-23.65 191.63-23.65 187.98-19.5L187.98-19.5 187.98 0 186.13 0 186.13-25 187.98-25 187.98-22Q191.23-25.5 195.03-25.5L195.03-25.5Q197.58-25.5 200.33-23.1L200.33-23.1Q201.73-21.8 202.65-19.25 203.58-16.7 203.58-13.25L203.58-13.25 203.53 0ZM218.45-2.55Q221.47-3.35 222.65-4.6 223.82-5.85 223.82-7.98 223.82-10.1 222.22-11.3 220.62-12.5 218.35-12.85 216.07-13.2 213.8-13.63 211.52-14.05 209.92-15.5 208.32-16.95 208.32-19.7L208.32-19.7Q208.32-25.5 217.32-25.5L217.32-25.5Q220.62-25.5 224.97-24.8L224.97-24.8 224.97-22.85Q220.47-23.65 217.42-23.65 214.37-23.65 212.25-22.78 210.12-21.9 210.12-19.83 210.12-17.75 211.72-16.63 213.32-15.5 215.6-15.08 217.87-14.65 220.17-14.1 222.47-13.55 224.07-11.93 225.67-10.3 225.67-7.35L225.67-7.35Q225.67-3.7 222.82-2.1L222.82-2.1Q221.42-1.3 220.12-0.83 218.82-0.35 216.67-0.2L216.67-0.2Q213.27 0.1 210.17 0.1L210.17 0.1 208.92 0.1 208.92-1.75Q215.42-1.75 218.45-2.55ZM232.72-25L232.72 0 230.87 0 230.87-25 232.72-25ZM230.97-28.95L230.97-33.25 232.82-33.25 232.82-28.95 230.97-28.95ZM253.67-22L253.67-25 255.52-25 255.52 0.85Q255.52 4.3 254.67 6.88 253.82 9.45 252.52 10.7L252.52 10.7Q249.97 13.15 247.47 13.15L247.47 13.15Q244.12 13.15 241.17 10.35L241.17 10.35 241.17 7.95Q244.32 11.3 247.42 11.3 250.52 11.3 252.09 8.33 253.67 5.35 253.67 0.8L253.67 0.8 253.67 0Q244.72-0.35 241.17-3.9L241.17-3.9Q238.07-7.1 238.07-13.25L238.07-13.25Q238.07-20.8 242.47-24L242.47-24Q244.57-25.55 246.62-25.55L246.62-25.55Q250.37-25.55 253.67-22L253.67-22ZM246.92-23.7Q243.97-23.7 241.94-20.55 239.92-17.4 239.92-13.68 239.92-9.95 240.97-7.65 242.02-5.35 243.97-4.1L243.97-4.1Q247.57-1.85 253.67-1.85L253.67-1.85 253.67-19.5Q251.97-21.45 250.39-22.58 248.82-23.7 246.92-23.7L246.92-23.7ZM279.92 0L278.07 0 278.12-13.2Q278.12-17.4 276.09-20.55 274.07-23.7 271.12-23.7L271.12-23.7Q269.22-23.7 267.64-22.58 266.07-21.45 264.37-19.5L264.37-19.5 264.37 0 262.52 0 262.52-37.5 264.37-37.5 264.37-22Q267.67-25.55 271.42-25.55L271.42-25.55Q273.47-25.55 275.57-24L275.57-24Q279.97-20.8 279.97-13.25L279.97-13.25 279.92 0ZM288.26 0L288.26-23.15 282.51-23.15 282.51-25 288.26-25 288.26-33.25 290.11-33.25 290.11-25 295.91-25 295.91-23.15 290.11-23.15 290.11 0 288.26 0Z" opacity="1" transform="matrix(1,0,0,1,0,0)" fill="#000000" class="wordmark-text-0" data-fill-palette-color="primary" id="text-0"></path></svg></g></svg></g></svg></g></svg></g><g><svg viewBox="0 0 206.24876351292895 206.24876351292895" height="206.24876351292895" width="206.24876351292895"><g><svg></svg></g><g id="icon-0"><svg viewBox="0 0 206.24876351292895 206.24876351292895" height="206.24876351292895" width="206.24876351292895"><g><path d="M0 103.124c0-56.954 46.17-103.124 103.124-103.124 56.954 0 103.124 46.17 103.125 103.124 0 56.954-46.17 103.124-103.125 103.125-56.954 0-103.124-46.17-103.124-103.125zM103.124 200.125c53.572 0 97-43.429 97.001-97.001 0-53.572-43.429-97-97.001-97-53.572 0-97 43.429-97 97 0 53.572 43.429 97 97 97.001z" data-fill-palette-color="accent" fill="#000000" stroke="transparent"></path><ellipse rx="102.09313793889983" ry="102.09313793889983" cx="103.12438175646447" cy="103.12438175646447" fill="#000000" stroke="transparent" stroke-width="0" fill-opacity="1" data-fill-palette-color="accent"></ellipse></g><g transform="matrix(1,0,0,1,42.329024927269,66.48567999239941)"><svg viewBox="0 0 121.59071365839094 73.27740352813011" height="73.27740352813011" width="121.59071365839094"><g><svg xmlns="http://www.w3.org/2000/svg" data-name="Layer 1" viewBox="17.999999999897728 30.719999999969698 64.00000000010228 38.57000000003029" x="0" y="0" height="73.27740352813011" width="121.59071365839094" class="icon-cg-0" data-fill-palette-color="quaternary" id="cg-0"><path d="M81.22 47.65h-4v-2.8a0.78 0.78 0 0 0-0.78-0.78h-4.6a0.78 0.78 0 0 0-0.78 0.78v2.8H65.3v-2.8a0.78 0.78 0 0 0-0.78-0.78h-4.6a0.78 0.78 0 0 0-0.78 0.78v2.8H55.93V34.19a3.48 3.48 0 0 0-3.48-3.47H38.35a3.48 3.48 0 0 0-3.47 3.47v5.1H27.36V35.57A2.32 2.32 0 0 0 25 33.25H20.31A2.32 2.32 0 0 0 18 35.57v4.5h0V62.4a3.76 3.76 0 0 0 3.76 3.76H34.91a3.47 3.47 0 0 0 3.44 3.13h14.1a3.48 3.48 0 0 0 3.22-2.17H81.22a0.78 0.78 0 0 0 0.78-0.78V48.43A0.78 0.78 0 0 0 81.22 47.65Zm-8.59-2h3v2h-3Zm-11.93 0h3v2h-3Zm-25.82 0.7l-3-2.58h3ZM19.56 35.57a0.75 0.75 0 0 1 0.75-0.75H25a0.75 0.75 0 0 1 0.75 0.75v3.72H19.56Zm0 26.83V40.85H34.88v1.34h-5.1a0.78 0.78 0 0 0-0.51 1.37l5.61 4.82V64.59H21.76A2.2 2.2 0 0 1 19.56 62.4Zm32.89 5.33H38.35a1.91 1.91 0 0 1-1.91-1.91V63.54l5.46 1.65a0.78 0.78 0 1 0 0.45-1.49l-5.91-1.78V57.15L41.9 58.8a0.78 0.78 0 0 0 0.45-1.49l-5.91-1.79V50.76L41.9 52.4a0.78 0.78 0 1 0 0.45-1.49l-5.91-1.79V44.36L41.9 46a0.78 0.78 0 0 0 0.45-1.49l-5.91-1.78V38l5.46 1.65a0.78 0.78 0 1 0 0.45-1.49l-5.91-1.79V34.19a1.91 1.91 0 0 1 1.91-1.91h14.1a1.92 1.92 0 0 1 1.92 1.91v2.15l-5.91 1.79a0.78 0.78 0 1 0 0.45 1.49L54.37 38v4.76l-5.91 1.79A0.78 0.78 0 1 0 48.91 46l5.46-1.65v4.05h0v0.7l-5.91 1.79a0.78 0.78 0 1 0 0.45 1.49l5.46-1.65v4.76L48.46 57.3a0.78 0.78 0 1 0 0.45 1.49l5.46-1.65v4.76L48.46 63.7a0.78 0.78 0 1 0 0.45 1.49l5.46-1.65v2.3A1.92 1.92 0 0 1 52.45 67.72Zm28-2.17H55.93V49.21H80.44Z" fill="#ffffff" data-fill-palette-color="quaternary"></path><path d="M64.52 53.53h-4.6a0.78 0.78 0 0 0 0 1.56h4.6a0.78 0.78 0 1 0 0-1.56Z" fill="#ffffff" data-fill-palette-color="quaternary"></path><path d="M74.93 53.53V52a0.78 0.78 0 0 0-1.56 0v1.52H71.85a0.78 0.78 0 1 0 0 1.56h1.52v1.52a0.78 0.78 0 1 0 1.56 0V55.09h1.52a0.78 0.78 0 0 0 0-1.56Z" fill="#ffffff" data-fill-palette-color="quaternary"></path></svg></g></svg></g></svg></g></svg></g></svg></g><defs></defs></svg><rect width="395.5199999999999" height="128.70209699246112" fill="none" stroke="none" visibility="hidden"></rect></g></svg></g></svg>